<svg width="25" height="24" viewBox="0 0 25 24" fill="none" xmlns="http://www.w3.org/2000/svg">
<path d="M12.7065 2.12733C15.8612 2.12733 16.2315 2.14139 17.4784 2.19764C18.6315 2.24921 19.2549 2.44139 19.6721 2.60546C20.2252 2.82108 20.619 3.07421 21.0315 3.48671C21.444 3.89921 21.7018 4.29296 21.9127 4.84608C22.0721 5.26327 22.269 5.88671 22.3206 7.03983C22.3768 8.28671 22.3909 8.65702 22.3909 11.8117C22.3909 14.9664 22.3768 15.3367 22.3206 16.5836C22.269 17.7367 22.0768 18.3601 21.9127 18.7773C21.6971 19.3305 21.444 19.7242 21.0315 20.1367C20.619 20.5492 20.2252 20.807 19.6721 21.018C19.2549 21.1773 18.6315 21.3742 17.4784 21.4258C16.2315 21.482 15.8612 21.4961 12.7065 21.4961C9.55181 21.4961 9.18149 21.482 7.93462 21.4258C6.78149 21.3742 6.15806 21.182 5.74087 21.018C5.18774 20.8023 4.79399 20.5492 4.38149 20.1367C3.96899 19.7242 3.71118 19.3305 3.50024 18.7773C3.34087 18.3601 3.14399 17.7367 3.09243 16.5836C3.03618 15.3367 3.02212 14.9664 3.02212 11.8117C3.02212 8.65702 3.03618 8.28671 3.09243 7.03983C3.14399 5.88671 3.33618 5.26327 3.50024 4.84608C3.71587 4.29296 3.96899 3.89921 4.38149 3.48671C4.79399 3.07421 5.18774 2.81639 5.74087 2.60546C6.15806 2.44608 6.78149 2.24921 7.93462 2.19764C9.18149 2.13671 9.55181 2.12733 12.7065 2.12733ZM12.7065 -0.000793457C9.50024 -0.000793457 9.09712 0.013269 7.83618 0.069519C6.57993 0.125769 5.72212 0.327331 4.97212 0.617957C4.19399 0.917956 3.53774 1.32577 2.88149 1.98202C2.22524 2.63827 1.82212 3.29921 1.51743 4.07264C1.22681 4.82264 1.02524 5.68046 0.968994 6.94139C0.912744 8.19764 0.898682 8.60077 0.898682 11.807C0.898682 15.0133 0.912744 15.4164 0.968994 16.6773C1.02524 17.9336 1.22681 18.7914 1.51743 19.5461C1.81743 20.3242 2.22524 20.9805 2.88149 21.6367C3.53774 22.293 4.19868 22.6961 4.97212 23.0008C5.72212 23.2914 6.57993 23.493 7.84087 23.5492C9.10181 23.6055 9.50024 23.6195 12.7112 23.6195C15.9221 23.6195 16.3206 23.6055 17.5815 23.5492C18.8377 23.493 19.6956 23.2914 20.4502 23.0008C21.2284 22.7008 21.8846 22.293 22.5409 21.6367C23.1971 20.9805 23.6002 20.3195 23.9049 19.5461C24.1956 18.7961 24.3971 17.9383 24.4534 16.6773C24.5096 15.4164 24.5237 15.018 24.5237 11.807C24.5237 8.59608 24.5096 8.19764 24.4534 6.93671C24.3971 5.68046 24.1956 4.82264 23.9049 4.06796C23.6049 3.28983 23.1971 2.63358 22.5409 1.97733C21.8846 1.32108 21.2237 0.917957 20.4502 0.613269C19.7002 0.322644 18.8424 0.121082 17.5815 0.0648315C16.3159 0.013269 15.9127 -0.000793457 12.7065 -0.000793457Z" fill="#331B3B"/>
<path d="M12.7065 5.74139C9.35962 5.74139 6.64087 8.45546 6.64087 11.807C6.64087 15.1586 9.35962 17.8726 12.7065 17.8726C16.0534 17.8726 18.7721 15.1539 18.7721 11.807C18.7721 8.46014 16.0534 5.74139 12.7065 5.74139ZM12.7065 15.7445C10.5315 15.7445 8.76899 13.982 8.76899 11.807C8.76899 9.63202 10.5315 7.86952 12.7065 7.86952C14.8815 7.86952 16.644 9.63202 16.644 11.807C16.644 13.982 14.8815 15.7445 12.7065 15.7445Z" fill="#331B3B"/>
<path d="M19.0112 6.91798C19.793 6.91798 20.4268 6.28418 20.4268 5.50236C20.4268 4.72053 19.793 4.08673 19.0112 4.08673C18.2294 4.08673 17.5956 4.72053 17.5956 5.50236C17.5956 6.28418 18.2294 6.91798 19.0112 6.91798Z" fill="#331B3B"/>
</svg>
